<svg width="36" height="48" viewBox="0 0 36 48" fill="none" xmlns="http://www.w3.org/2000/svg">
<path d="M4.5 0C2.01562 0 0 2.01562 0 4.5V43.5C0 45.9844 2.01562 48 4.5 48H13.5V40.5C13.5 38.0156 15.5156 36 18 36C20.4844 36 22.5 38.0156 22.5 40.5V48H31.5C33.9844 48 36 45.9844 36 43.5V4.5C36 2.01562 33.9844 0 31.5 0H4.5ZM6 22.5C6 21.675 6.675 21 7.5 21H10.5C11.325 21 12 21.675 12 22.5V25.5C12 26.325 11.325 27 10.5 27H7.5C6.675 27 6 26.325 6 25.5V22.5ZM16.5 21H19.5C20.325 21 21 21.675 21 22.5V25.5C21 26.325 20.325 27 19.5 27H16.5C15.675 27 15 26.325 15 25.5V22.5C15 21.675 15.675 21 16.5 21ZM24 22.5C24 21.675 24.675 21 25.5 21H28.5C29.325 21 30 21.675 30 22.5V25.5C30 26.325 29.325 27 28.5 27H25.5C24.675 27 24 26.325 24 25.5V22.5ZM7.5 9H10.5C11.325 9 12 9.675 12 10.5V13.5C12 14.325 11.325 15 10.5 15H7.5C6.675 15 6 14.325 6 13.5V10.5C6 9.675 6.675 9 7.5 9ZM15 10.5C15 9.675 15.675 9 16.5 9H19.5C20.325 9 21 9.675 21 10.5V13.5C21 14.325 20.325 15 19.5 15H16.5C15.675 15 15 14.325 15 13.5V10.5ZM25.5 9H28.5C29.325 9 30 9.675 30 10.5V13.5C30 14.325 29.325 15 28.5 15H25.5C24.675 15 24 14.325 24 13.5V10.5C24 9.675 24.675 9 25.5 9Z" fill="#EAB308"/>
</svg>
