<svg width="60" height="42" viewBox="0 0 60 42" fill="none" xmlns="http://www.w3.org/2000/svg">
<path d="M6 0C2.69063 0 0 2.69063 0 6V25.5V33V34.5C0 38.6438 3.35625 42 7.5 42C9.95625 42 12.1312 40.8187 13.5 39C14.8688 40.8187 17.0437 42 19.5 42C23.6438 42 27 38.6438 27 34.5C27 33.9844 26.9437 33.4875 26.85 33H39H42.15C42.0563 33.4875 42 33.9844 42 34.5C42 38.6438 45.3562 42 49.5 42C53.6438 42 57 38.6438 57 34.5C57 33.9844 56.9438 33.4875 56.85 33H57C58.6594 33 60 31.6594 60 30V24V22.5V21.5344C60 20.6719 59.7 19.8281 59.1562 19.1625L53.6438 12.4313C52.65 11.2125 51.1594 10.5094 49.5844 10.5094H45V6C45 2.69063 42.3094 0 39 0H6ZM54.8438 21H45V15H49.575C49.8 15 50.0156 15.1031 50.1562 15.2719L54.8438 21ZM49.5 31.5C50.2956 31.5 51.0587 31.8161 51.6213 32.3787C52.1839 32.9413 52.5 33.7044 52.5 34.5C52.5 35.2956 52.1839 36.0587 51.6213 36.6213C51.0587 37.1839 50.2956 37.5 49.5 37.5C48.7044 37.5 47.9413 37.1839 47.3787 36.6213C46.8161 36.0587 46.5 35.2956 46.5 34.5C46.5 33.7044 46.8161 32.9413 47.3787 32.3787C47.9413 31.8161 48.7044 31.5 49.5 31.5ZM16.5 34.5C16.5 33.7044 16.8161 32.9413 17.3787 32.3787C17.9413 31.8161 18.7044 31.5 19.5 31.5C20.2956 31.5 21.0587 31.8161 21.6213 32.3787C22.1839 32.9413 22.5 33.7044 22.5 34.5C22.5 35.2956 22.1839 36.0587 21.6213 36.6213C21.0587 37.1839 20.2956 37.5 19.5 37.5C18.7044 37.5 17.9413 37.1839 17.3787 36.6213C16.8161 36.0587 16.5 35.2956 16.5 34.5ZM7.5 31.5C8.29565 31.5 9.05871 31.8161 9.62132 32.3787C10.1839 32.9413 10.5 33.7044 10.5 34.5C10.5 35.2956 10.1839 36.0587 9.62132 36.6213C9.05871 37.1839 8.29565 37.5 7.5 37.5C6.70435 37.5 5.94129 37.1839 5.37868 36.6213C4.81607 36.0587 4.5 35.2956 4.5 34.5C4.5 33.7044 4.81607 32.9413 5.37868 32.3787C5.94129 31.8161 6.70435 31.5 7.5 31.5Z" fill="#EAB308"/>
</svg>
