<svg width="54" height="48" viewBox="0 0 54 48" fill="none" xmlns="http://www.w3.org/2000/svg">
<path d="M50.9812 26.9625C52.575 26.9625 53.9812 25.65 53.9812 23.9531C54.075 23.1094 53.7 22.3594 52.95 21.7031L48 17.3438V6C48 4.34062 46.6594 3 45 3H42C40.3406 3 39 4.34062 39 6V9.44062L29.0156 0.65625C28.4531 0.1875 27.7031 0 27.0469 0C26.3906 0 25.6406 0.09375 24.9844 0.75L0.9375 21.7031C0.28125 22.3594 0 23.1094 0 23.9531C0 25.6406 1.3125 26.9625 3 26.9625H6V33.4969C5.99062 33.5812 5.99063 33.6656 5.99063 33.7594V44.25C5.99063 46.3219 7.66875 48 9.74063 48H11.2406C11.3531 48 11.4656 47.9906 11.5781 47.9812C11.7188 47.9906 11.8594 48 12 48H15H17.25C19.3219 48 21 46.3219 21 44.25V42V36C21 34.3406 22.3406 33 24 33H30C31.6594 33 33 34.3406 33 36V42V44.25C33 46.3219 34.6781 48 36.75 48H39H42.0469C42.1781 48 42.3094 48 42.4406 47.9906C42.5438 48 42.6469 48 42.75 48H44.25C46.3219 48 48 46.3219 48 44.25V42.7312C48.0281 42.4875 48.0469 42.2344 48.0469 41.9719L47.9812 26.9531H50.9812V26.9625Z" fill="#EAB308"/>
</svg>
