<svg width="10" height="16" viewBox="0 0 10 16" fill="none" xmlns="http://www.w3.org/2000/svg">
<g clip-path="url(#clip0_1_1612)">
<path d="M5.70624 0.293701C5.31562 -0.0969238 4.68124 -0.0969238 4.29062 0.293701L1.29062 3.2937C0.899994 3.68433 0.899994 4.3187 1.29062 4.70933C1.68124 5.09995 2.31562 5.09995 2.70624 4.70933L3.99999 3.41558V12.5843L2.70624 11.2937C2.31562 10.9031 1.68124 10.9031 1.29062 11.2937C0.899994 11.6843 0.899994 12.3187 1.29062 12.7093L4.29062 15.7093C4.68124 16.1 5.31562 16.1 5.70624 15.7093L8.70624 12.7093C9.09687 12.3187 9.09687 11.6843 8.70624 11.2937C8.31562 10.9031 7.68124 10.9031 7.29062 11.2937L5.99999 12.5843V3.41558L7.29374 4.70933C7.68437 5.09995 8.31874 5.09995 8.70937 4.70933C9.09999 4.3187 9.09999 3.68433 8.70937 3.2937L5.70937 0.293701H5.70624Z" fill="#EAB308"/>
</g>
<defs>
<clipPath id="clip0_1_1612">
<path d="M0 0H10V16H0V0Z" fill="white"/>
</clipPath>
</defs>
</svg>
