<svg width="20" height="8" viewBox="0 0 20 8" fill="none" xmlns="http://www.w3.org/2000/svg">
<path d="M0 6.5C0 7.32812 0.671875 8 1.5 8H18.5C19.3281 8 20 7.32812 20 6.5V1.5C20 0.671875 19.3281 0 18.5 0H16.5V2.5C16.5 2.775 16.275 3 16 3C15.725 3 15.5 2.775 15.5 2.5V0H13.5V2.5C13.5 2.775 13.275 3 13 3C12.725 3 12.5 2.775 12.5 2.5V0H10.5V2.5C10.5 2.775 10.275 3 10 3C9.725 3 9.5 2.775 9.5 2.5V0H7.5V2.5C7.5 2.775 7.275 3 7 3C6.725 3 6.5 2.775 6.5 2.5V0H4.5V2.5C4.5 2.775 4.275 3 4 3C3.725 3 3.5 2.775 3.5 2.5V0H1.5C0.671875 0 0 0.671875 0 1.5V6.5Z" fill="#EAB308"/>
</svg>
