<svg width="16" height="16" viewBox="0 0 16 16" fill="none" xmlns="http://www.w3.org/2000/svg">
<g clip-path="url(#clip0_1_1609)">
<path d="M7.00001 3C7.00001 2.73478 7.10536 2.48043 7.2929 2.29289C7.48043 2.10536 7.73479 2 8.00001 2C8.26522 2 8.51958 2.10536 8.70711 2.29289C8.89465 2.48043 9.00001 2.73478 9.00001 3C9.00001 3.26522 8.89465 3.51957 8.70711 3.70711C8.51958 3.89464 8.26522 4 8.00001 4C7.73479 4 7.48043 3.89464 7.2929 3.70711C7.10536 3.51957 7.00001 3.26522 7.00001 3ZM10.8281 4C10.9375 3.6875 11 3.35 11 3C11 1.34375 9.65626 0 8.00001 0C6.34376 0 5.00001 1.34375 5.00001 3C5.00001 3.35 5.05938 3.6875 5.17188 4H3.75001C3.06251 4 2.46251 4.46875 2.29376 5.1375L0.0437554 14.1375C-0.0687446 14.5844 0.0312554 15.0594 0.31563 15.425C0.600005 15.7906 1.03751 16 1.50001 16H14.5C14.9625 16 15.3969 15.7875 15.6813 15.4219C15.9656 15.0562 16.0656 14.5844 15.9531 14.1344L13.7031 5.13438C13.5375 4.46875 12.9375 4 12.25 4H10.8281Z" fill="#EAB308"/>
</g>
<defs>
<clipPath id="clip0_1_1609">
<path d="M0 0H16V16H0V0Z" fill="white"/>
</clipPath>
</defs>
</svg>
